<svg width="298" height="298" viewBox="0 0 298 298" fill="none" xmlns="http://www.w3.org/2000/svg">
<g filter="url(#filter0_d_11_192)">
<rect x="4" width="290" height="290" rx="20" fill="#021115"/>
<rect x="4" width="290" height="290" rx="20" fill="black" fill-opacity="0.2"/>
<path d="M94.9717 182.38H85.106V210H79.8545V182.38H70.0547V178.008H94.9717V182.38ZM118.109 195.652H104.881V205.649H120.328V210H99.5859V178.008H120.218V182.38H104.881V191.389H118.109V195.652ZM137.071 197.585H131.666V210H126.393V178.008H136.544C138.199 178.022 139.723 178.235 141.114 178.645C142.506 179.055 143.707 179.656 144.718 180.447C145.714 181.252 146.49 182.256 147.047 183.457C147.604 184.644 147.882 186.035 147.882 187.632C147.882 188.73 147.735 189.727 147.442 190.62C147.164 191.514 146.769 192.319 146.256 193.037C145.743 193.755 145.128 194.385 144.41 194.927C143.692 195.469 142.894 195.938 142.015 196.333L148.849 209.714V210H143.202L137.071 197.585ZM131.666 193.279H136.61C137.547 193.264 138.39 193.125 139.137 192.861C139.898 192.583 140.543 192.188 141.07 191.675C141.539 191.235 141.905 190.693 142.169 190.049C142.433 189.404 142.564 188.672 142.564 187.852C142.564 186.929 142.418 186.123 142.125 185.435C141.847 184.731 141.429 184.146 140.873 183.677C140.36 183.237 139.737 182.908 139.005 182.688C138.272 182.454 137.452 182.329 136.544 182.314H131.666V193.279ZM164.098 197.585H158.692V210H153.419V178.008H163.57C165.226 178.022 166.749 178.235 168.141 178.645C169.532 179.055 170.733 179.656 171.744 180.447C172.74 181.252 173.517 182.256 174.073 183.457C174.63 184.644 174.908 186.035 174.908 187.632C174.908 188.73 174.762 189.727 174.469 190.62C174.19 191.514 173.795 192.319 173.282 193.037C172.77 193.755 172.154 194.385 171.437 194.927C170.719 195.469 169.92 195.938 169.042 196.333L175.875 209.714V210H170.228L164.098 197.585ZM158.692 193.279H163.636C164.574 193.264 165.416 193.125 166.163 192.861C166.925 192.583 167.569 192.188 168.097 191.675C168.565 191.235 168.932 190.693 169.195 190.049C169.459 189.404 169.591 188.672 169.591 187.852C169.591 186.929 169.444 186.123 169.151 185.435C168.873 184.731 168.456 184.146 167.899 183.677C167.386 183.237 166.764 182.908 166.031 182.688C165.299 182.454 164.479 182.329 163.57 182.314H158.692V193.279ZM202.066 196.135C202.066 197.424 201.949 198.669 201.715 199.871C201.495 201.072 201.173 202.207 200.748 203.276C200.294 204.346 199.73 205.334 199.056 206.243C198.382 207.136 197.606 207.905 196.727 208.55C195.877 209.136 194.933 209.597 193.893 209.934C192.867 210.271 191.739 210.439 190.509 210.439C189.234 210.439 188.062 210.264 186.993 209.912C185.938 209.546 184.994 209.048 184.159 208.418C183.309 207.773 182.562 206.997 181.917 206.089C181.288 205.181 180.76 204.185 180.335 203.101C179.925 202.061 179.618 200.955 179.413 199.783C179.208 198.596 179.105 197.38 179.105 196.135V191.917C179.105 190.613 179.215 189.353 179.435 188.137C179.654 186.921 179.984 185.771 180.423 184.688C180.848 183.647 181.368 182.695 181.983 181.831C182.613 180.952 183.353 180.19 184.203 179.546C185.023 178.916 185.953 178.433 186.993 178.096C188.048 177.744 189.205 177.568 190.465 177.568C191.739 177.568 192.911 177.744 193.98 178.096C195.05 178.447 196.009 178.938 196.859 179.568C197.708 180.198 198.448 180.938 199.078 181.787C199.708 182.637 200.235 183.567 200.66 184.578C201.129 185.662 201.48 186.826 201.715 188.071C201.949 189.302 202.066 190.583 202.066 191.917V196.135ZM196.749 191.873C196.734 191.067 196.683 190.276 196.595 189.5C196.522 188.723 196.39 187.983 196.2 187.28C195.98 186.475 195.687 185.742 195.321 185.083C194.969 184.409 194.537 183.838 194.024 183.369C193.57 182.959 193.05 182.637 192.464 182.402C191.878 182.168 191.212 182.051 190.465 182.051C189.747 182.051 189.103 182.168 188.531 182.402C187.96 182.622 187.462 182.93 187.037 183.325C186.524 183.809 186.092 184.387 185.741 185.061C185.389 185.72 185.118 186.46 184.928 187.28C184.752 187.983 184.62 188.73 184.532 189.521C184.459 190.298 184.422 191.082 184.422 191.873V196.135C184.422 196.912 184.459 197.681 184.532 198.442C184.605 199.204 184.73 199.937 184.906 200.64C185.096 201.431 185.353 202.17 185.675 202.859C186.012 203.533 186.415 204.104 186.883 204.573C187.337 205.012 187.857 205.364 188.443 205.627C189.044 205.876 189.732 206.001 190.509 206.001C191.256 206.001 191.93 205.876 192.53 205.627C193.146 205.378 193.673 205.042 194.112 204.617C194.625 204.133 195.05 203.562 195.387 202.903C195.738 202.229 196.017 201.489 196.222 200.684C196.397 199.98 196.522 199.248 196.595 198.486C196.683 197.71 196.734 196.926 196.749 196.135V191.873ZM218.15 197.585H212.745V210H207.472V178.008H217.623C219.278 178.022 220.802 178.235 222.193 178.645C223.585 179.055 224.786 179.656 225.797 180.447C226.793 181.252 227.569 182.256 228.126 183.457C228.683 184.644 228.961 186.035 228.961 187.632C228.961 188.73 228.814 189.727 228.521 190.62C228.243 191.514 227.848 192.319 227.335 193.037C226.822 193.755 226.207 194.385 225.489 194.927C224.771 195.469 223.973 195.938 223.094 196.333L229.928 209.714V210H224.281L218.15 197.585ZM212.745 193.279H217.689C218.626 193.264 219.469 193.125 220.216 192.861C220.978 192.583 221.622 192.188 222.149 191.675C222.618 191.235 222.984 190.693 223.248 190.049C223.512 189.404 223.644 188.672 223.644 187.852C223.644 186.929 223.497 186.123 223.204 185.435C222.926 184.731 222.508 184.146 221.952 183.677C221.439 183.237 220.816 182.908 220.084 182.688C219.352 182.454 218.531 182.329 217.623 182.314H212.745V193.279Z" fill="white"/>
<path d="M149 53.25C137.069 53.2636 125.631 58.0091 117.195 66.4453C108.759 74.8814 104.014 86.3194 104 98.25V143.25C104 143.96 104.201 144.656 104.581 145.256C104.961 145.856 105.503 146.336 106.145 146.64C106.787 146.944 107.502 147.059 108.207 146.973C108.911 146.886 109.577 146.602 110.127 146.152L121.498 136.847L132.875 146.152C133.545 146.7 134.384 146.999 135.249 146.999C136.115 146.999 136.954 146.7 137.623 146.152L149 136.847L160.377 146.152C161.046 146.7 161.885 146.999 162.751 146.999C163.616 146.999 164.455 146.7 165.125 146.152L176.502 136.847L187.873 146.152C188.423 146.602 189.089 146.886 189.793 146.973C190.498 147.059 191.213 146.944 191.855 146.64C192.497 146.336 193.039 145.856 193.419 145.256C193.799 144.656 194 143.96 194 143.25V98.25C193.986 86.3194 189.241 74.8814 180.805 66.4453C172.369 58.0091 160.931 53.2636 149 53.25ZM135.875 102C134.762 102 133.675 101.67 132.75 101.052C131.825 100.434 131.104 99.5554 130.678 98.5276C130.252 97.4998 130.141 96.3688 130.358 95.2776C130.575 94.1865 131.111 93.1842 131.898 92.3975C132.684 91.6109 133.686 91.0751 134.778 90.8581C135.869 90.641 137 90.7524 138.028 91.1782C139.055 91.6039 139.934 92.3249 140.552 93.2499C141.17 94.1749 141.5 95.2625 141.5 96.375C141.5 97.8668 140.907 99.2976 139.852 100.352C138.798 101.407 137.367 102 135.875 102ZM162.125 102C161.012 102 159.925 101.67 159 101.052C158.075 100.434 157.354 99.5554 156.928 98.5276C156.502 97.4998 156.391 96.3688 156.608 95.2776C156.825 94.1865 157.361 93.1842 158.148 92.3975C158.934 91.6109 159.936 91.0751 161.028 90.8581C162.119 90.641 163.25 90.7524 164.278 91.1782C165.305 91.6039 166.184 92.3249 166.802 93.2499C167.42 94.1749 167.75 95.2625 167.75 96.375C167.75 97.8668 167.157 99.2976 166.102 100.352C165.048 101.407 163.617 102 162.125 102Z" fill="white"/>
</g>
<defs>
<filter id="filter0_d_11_192" x="0" y="0" width="298" height="298" filterUnits="userSpaceOnUse" color-interpolation-filters="sRGB">
<feFlood flood-opacity="0" result="BackgroundImageFix"/>
<feColorMatrix in="SourceAlpha" type="matrix" values="0 0 0 0 0 0 0 0 0 0 0 0 0 0 0 0 0 0 127 0" result="hardAlpha"/>
<feOffset dy="4"/>
<feGaussianBlur stdDeviation="2"/>
<feComposite in2="hardAlpha" operator="out"/>
<feColorMatrix type="matrix" values="0 0 0 0 0 0 0 0 0 0 0 0 0 0 0 0 0 0 0.25 0"/>
<feBlend mode="normal" in2="BackgroundImageFix" result="effect1_dropShadow_11_192"/>
<feBlend mode="normal" in="SourceGraphic" in2="effect1_dropShadow_11_192" result="shape"/>
</filter>
</defs>
</svg>
